<?xml version="1.0" encoding="UTF-8" standalone="no"?>
<svg width="61px" height="69px" viewBox="0 0 61 69" version="1.1" xmlns="http://www.w3.org/2000/svg" xmlns:xlink="http://www.w3.org/1999/xlink" xmlns:sketch="http://www.bohemiancoding.com/sketch/ns">
    <!-- Generator: Sketch 3.4.1 (15681) - http://www.bohemiancoding.com/sketch -->
    <title>tsLogo</title>
    <desc>Created with Sketch.</desc>
    <defs></defs>
    <g id="Page-1" stroke="none" stroke-width="1" fill="none" fill-rule="evenodd" sketch:type="MSPage">
        <path d="M6.81644,0 C7.97357,0 8.70704,0.30222 9.99734,0.81558 L57.31547,28.34658 C59.51588,29.65068 60.53501,31.74621 60.92831,34.1619 L60.92831,34.83948 C60.53501,37.25379 59.51588,39.35001 57.31547,40.6548 L9.99803,68.18511 C8.70704,68.69916 7.97357,69 6.81713,69 C3.09113,69 0.07169,65.97987 0.07169,62.25387 L0.07169,6.74613 C0.071,3.02013 3.09044,0 6.81644,0 Z" id="logo" fill="#FB7004" sketch:type="MSShapeGroup"></path>
        <path d="M29.8791492,16.282865 L28.2868472,19.0408129 L28.2043703,18.9931948 L27.984432,18.8662134 L27.2054838,18.4164874 C26.9672173,18.2789242 26.8822777,18.0944812 26.9506651,17.8631584 C27.0467629,17.5979489 27.2494785,17.1127992 27.5588119,16.4077094 C27.104503,15.952999 26.2908464,15.3870267 25.1178421,14.7097923 C24.4030426,14.2971026 23.7606834,14.1257778 23.1907646,14.195818 C22.630041,14.2640405 22.1876718,14.5787569 21.8636569,15.1399672 C21.687763,15.4446243 21.6297711,15.7496504 21.6896811,16.0550457 C21.7466299,16.3373519 21.8861801,16.6388422 22.1083319,16.9595165 C22.3091942,17.24652 22.5788652,17.5554339 22.9173447,17.8862583 C23.5150063,18.4736187 23.8397553,18.7929526 23.8915918,18.8442598 C24.2025479,19.16632 24.5072388,19.5203954 24.8056646,19.906486 C25.1010668,20.2837044 25.3198523,20.6737001 25.462021,21.0764729 C25.6102368,21.4969899 25.666469,21.9427914 25.6307174,22.4138773 C25.5887318,22.90987 25.418075,23.4170921 25.1187469,23.9355435 C24.8657066,24.3738221 24.5211189,24.7378662 24.0849837,25.0276759 C23.6733484,25.3173777 23.1763685,25.5150469 22.5940439,25.6206834 C22.0546098,25.7225768 21.4437174,25.7083858 20.7613667,25.5781102 C20.1004301,25.4530716 19.4156167,25.185971 18.7069266,24.7768086 C17.3750779,24.0078654 16.2064369,23.033838 15.2010035,21.8547264 L16.9553129,18.8161734 L17.0377898,18.8637914 L17.2668922,18.9960637 L18.0366763,19.4404988 C18.2810522,19.5815893 18.3690465,19.7677959 18.3006591,19.9991187 C18.2417163,20.171756 18.0405748,20.6471248 17.6972346,21.425225 C18.071872,21.8909489 18.7448879,22.4042281 19.7162821,22.9650628 C20.0584083,23.1625895 20.3854792,23.3015386 20.6974947,23.3819101 C21.0034008,23.4587544 21.2819704,23.4841835 21.5332035,23.4581974 C21.7691319,23.4305017 21.9915167,23.3486645 22.2003579,23.2126857 C22.396918,23.0838694 22.560001,22.9072192 22.689607,22.6827351 C22.8469857,22.4101472 22.8895795,22.1247368 22.8173884,21.826504 C22.7482208,21.5371433 22.6040418,21.2436703 22.3848513,20.946085 C22.1565278,20.6361004 21.8883998,20.3245141 21.5804672,20.011326 C21.3182616,19.7459178 21.0012273,19.4132219 20.6293641,19.0132381 C20.3276032,18.6893603 20.0244552,18.3326124 19.7199201,17.9429946 C19.4184085,17.5622488 19.1950254,17.173162 19.0497707,16.7757341 C18.8953832,16.3659068 18.8298935,15.9361399 18.8533016,15.4864334 C18.8797956,15.031382 19.0319062,14.5633376 19.3096333,14.0823001 C19.6243906,13.5371244 20.0183209,13.094671 20.4914241,12.7549399 C20.9890895,12.4008839 21.5306274,12.1683652 22.1160378,12.0573838 C22.7259481,11.9462945 23.3751333,11.9576512 24.0635934,12.0914541 C24.745944,12.2217296 25.4720114,12.509085 26.2417955,12.95352 L26.5167184,13.1122468 C27.7202698,13.8071175 28.8981684,14.7651103 30.0504142,15.9862252 L29.8791492,16.282865 Z" id="s" fill="#FFFFFF" sketch:type="MSShapeGroup"></path>
        <path d="M8.33985439,7.32907205 L9.8393707,4.62387302 L10.1036574,4.77036956 L10.1300861,4.78501921 L20.3844122,10.469085 L20.3932217,10.4739682 L20.6839372,10.6351144 L19.1844208,13.3403134 L19.1051348,13.2963644 L18.8848959,13.174284 L18.1448929,12.7640937 C17.9099714,12.6338745 17.8245561,12.4555505 17.8886471,12.2291215 C17.9053818,12.1712298 17.9970602,11.936584 18.1636822,11.5251842 L15.5031956,10.0504523 L11.0131909,18.1506352 C11.0809961,18.2083706 11.168645,18.2787848 11.2761375,18.3618777 C11.38363,18.4449705 11.4565078,18.5004802 11.494771,18.5284066 C11.5330342,18.556333 11.5683609,18.5826317 11.600751,18.6073027 C11.6331412,18.6319736 11.6625948,18.6550168 11.6891119,18.6764323 C11.715629,18.6978478 11.7347606,18.711811 11.7465067,18.7183219 C11.7906429,18.7495038 11.8245455,18.7783716 11.8482146,18.8049251 C12.1192587,19.0223353 12.1778825,19.2697686 12.024086,19.5472249 L11.5114308,20.4720793 L10.1459493,19.7151805 L7.72332069,18.3722955 L6.35783913,17.6153968 L6.87049428,16.6905424 C7.02429082,16.4130861 7.26519201,16.3316822 7.59319784,16.4463308 C7.6282592,16.4523321 7.67070608,16.4657856 7.72053848,16.4866913 L8.00618586,16.5946523 C8.05014522,16.6123025 8.13583943,16.6446908 8.26326851,16.6918171 C8.39069758,16.7389434 8.49979552,16.7775878 8.59056232,16.8077502 L13.080567,8.7075674 L10.4200803,7.23283557 C10.2225013,7.50617324 10.069156,7.7066365 9.96004446,7.83422535 C9.80198486,8.00856663 9.60843081,8.03225544 9.37938229,7.90529177 L8.63056982,7.49021824 L8.41914042,7.37302101 L8.33985439,7.32907205 L8.33985439,7.32907205 Z" id="t" fill="#FFFFFF" sketch:type="MSShapeGroup"></path>
    </g>
</svg>